<?xml version="1.0" standalone="no"?><!DOCTYPE svg PUBLIC "-//W3C//DTD SVG 1.1//EN" "http://www.w3.org/Graphics/SVG/1.1/DTD/svg11.dtd"><svg t="1589600338062" class="icon" viewBox="0 0 1024 1024" version="1.1" xmlns="http://www.w3.org/2000/svg" p-id="1687" xmlns:xlink="http://www.w3.org/1999/xlink" width="200" height="200"><defs><style type="text/css"></style></defs><path d="M981.429851 316.292537c2.756219 6.494527 4.81592 13.323383 7.313433 19.945274l-54.208955 0C864.973134 171.58408 701.973134 56.039801 511.999005 56.039801 258.775124 56.039801 53.492537 261.322388 53.492537 514.546269L2.547264 514.546269C2.547264 233.176119 230.628856 5.094527 511.999005 5.094527c181.746269 0 340.795025 95.444776 430.974129 238.653731l15.711443-89.079602c2.447761-13.855721 15.666667-23.101493 29.522388-20.656716 13.830846 2.445771 23.104478 15.638806 20.656716 29.497512l-26.537313 150.517413C982.171144 314.867662 981.659701 315.504478 981.429851 316.292537zM715.779104 590.964179l0 50.945274-178.308458 0 0 152.835821-50.945274 0 0-152.835821-178.308458 0 0-50.945274 178.308458 0 0-76.41791-178.308458 0 0-50.945274 158.235821 0L350.579104 325.514428l39.024876-32.758209 121.987065 145.373134 0.81592 0 121.99005-145.373134 39.024876 32.758209-115.880597 138.086567 158.238806 0 0 50.945274-178.308458 0 0 76.41791L715.779104 590.964179zM42.564179 712.799005c-2.751244-6.492537-4.812935-13.323383-7.310448-19.945274l54.20597 0c69.564179 164.656716 232.564179 280.19801 422.538308 280.19801 253.222886 0 458.506468-205.283582 458.506468-458.506468l50.945274 0c0 281.372139-228.078607 509.451741-509.451741 509.451741-181.721393 0-340.79801-95.442786-430.971144-238.655721l-15.716418 89.084577c-2.444776 13.850746-15.663682 23.099502-29.522388 20.656716-13.830846-2.447761-23.101493-15.641791-20.656716-29.502488l26.542289-150.517413C41.825871 714.226866 42.335323 713.59005 42.564179 712.799005z" p-id="1688" fill="#707070"></path></svg>